<svg xmlns="http://www.w3.org/2000/svg" xmlns:xlink="http://www.w3.org/1999/xlink" xmlns:lucid="lucid" width="1521.5" height="1050.82"><g transform="translate(-140.00000000000003 -87.5)" lucid:page-tab-id="0_0"><path d="M0 0h1760v1360H0z" fill="#fff"/><path d="M160 186c0-3.3 2.7-6 6-6h268c3.3 0 6 2.7 6 6v248c0 3.3-2.7 6-6 6H166c-3.3 0-6-2.7-6-6z" stroke="#5e5e5e" stroke-width="3" fill="#fff"/><path d="M180 206c0-3.3 2.7-6 6-6h228c3.3 0 6 2.7 6 6v208c0 3.3-2.7 6-6 6H186c-3.3 0-6-2.7-6-6z" stroke="#000" stroke-opacity="0" stroke-width="3" fill="#fff" fill-opacity="0"/><use xlink:href="#a" transform="matrix(1,0,0,1,185,205) translate(69.24074074074075 24.888888888888886)"/><use xlink:href="#b" transform="matrix(1,0,0,1,185,205) translate(13.913580246913654 51.55555555555554)"/><use xlink:href="#c" transform="matrix(1,0,0,1,185,205) translate(82.95061728395063 51.55555555555554)"/><use xlink:href="#d" transform="matrix(1,0,0,1,185,205) translate(147.34567901234564 51.55555555555554)"/><use xlink:href="#e" transform="matrix(1,0,0,1,185,205) translate(115 72.88888888888886)"/><use xlink:href="#f" transform="matrix(1,0,0,1,185,205) translate(32.53086419753093 94.22222222222217)"/><use xlink:href="#c" transform="matrix(1,0,0,1,185,205) translate(82.85185185185188 94.22222222222217)"/><use xlink:href="#g" transform="matrix(1,0,0,1,185,205) translate(147.24691358024688 94.22222222222217)"/><use xlink:href="#e" transform="matrix(1,0,0,1,185,205) translate(115 115.55555555555549)"/><use xlink:href="#h" transform="matrix(1,0,0,1,185,205) translate(33.56790123456797 136.8888888888888)"/><use xlink:href="#c" transform="matrix(1,0,0,1,185,205) translate(81.81481481481484 136.8888888888888)"/><use xlink:href="#g" transform="matrix(1,0,0,1,185,205) translate(146.20987654320984 136.8888888888888)"/><use xlink:href="#e" transform="matrix(1,0,0,1,185,205) translate(115 158.22222222222211)"/><use xlink:href="#i" transform="matrix(1,0,0,1,185,205) translate(28.679012345679084 179.55555555555543)"/><use xlink:href="#c" transform="matrix(1,0,0,1,185,205) translate(68.18518518518522 179.55555555555543)"/><use xlink:href="#j" transform="matrix(1,0,0,1,185,205) translate(132.58024691358023 179.55555555555543)"/><path d="M941.5 126c0-3.3 2.7-6 6-6h268c3.3 0 6 2.7 6 6v248c0 3.3-2.7 6-6 6h-268c-3.3 0-6-2.7-6-6z" stroke="#834187" stroke-width="3" fill="#fff"/><path d="M961.5 146c0-3.3 2.7-6 6-6h228c3.3 0 6 2.7 6 6v208c0 3.3-2.7 6-6 6h-228c-3.3 0-6-2.7-6-6z" stroke="#834187" stroke-width="3" fill="#fff" fill-opacity="0"/><use xlink:href="#k" transform="matrix(1,0,0,1,966.4999999999995,145) translate(54.851851851851876 24.88888888888888)"/><use xlink:href="#l" transform="matrix(1,0,0,1,966.4999999999995,145) translate(57.80555555555561 53.3333333333333)"/><use xlink:href="#m" transform="matrix(1,0,0,1,966.4999999999995,145) translate(133.3611111111111 53.3333333333333)"/><use xlink:href="#n" transform="matrix(1,0,0,1,966.4999999999995,145) translate(115 77.33333333333329)"/><use xlink:href="#o" transform="matrix(1,0,0,1,966.4999999999995,145) translate(7.777777777777885 101.33333333333326)"/><use xlink:href="#p" transform="matrix(1,0,0,1,966.4999999999995,145) translate(63.277777777777835 101.33333333333326)"/><use xlink:href="#q" transform="matrix(1,0,0,1,966.4999999999995,145) translate(135.7222222222222 101.33333333333326)"/><use xlink:href="#r" transform="matrix(1,0,0,1,966.4999999999995,145) translate(152.38888888888886 101.33333333333326)"/><use xlink:href="#n" transform="matrix(1,0,0,1,966.4999999999995,145) translate(115 125.33333333333324)"/><use xlink:href="#s" transform="matrix(1,0,0,1,966.4999999999995,145) translate(67.3055555555556 149.3333333333332)"/><use xlink:href="#t" transform="matrix(1,0,0,1,966.4999999999995,145) translate(130.58333333333331 149.3333333333332)"/><use xlink:href="#u" transform="matrix(1,0,0,1,966.4999999999995,145) translate(33.80555555555563 173.3333333333332)"/><use xlink:href="#p" transform="matrix(1,0,0,1,966.4999999999995,145) translate(84.91666666666669 173.3333333333332)"/><use xlink:href="#v" transform="matrix(1,0,0,1,966.4999999999995,145) translate(157.36111111111106 173.3333333333332)"/><path d="M940 478.8c0-3.3 2.7-6 6-6h268c3.3 0 6 2.7 6 6v248c0 3.3-2.7 6-6 6H946c-3.3 0-6-2.7-6-6z" stroke="#5e5e5e" stroke-width="3" fill="#fff"/><path d="M960 498.8c0-3.3 2.7-6 6-6h228c3.3 0 6 2.7 6 6v208c0 3.3-2.7 6-6 6H966c-3.3 0-6-2.7-6-6z" stroke="#7ab648" stroke-width="3" fill="#fff" fill-opacity="0"/><use xlink:href="#w" transform="matrix(1,0,0,1,965,497.8000000000011) translate(81.42592592592594 24.888888888888886)"/><use xlink:href="#x" transform="matrix(1,0,0,1,965,497.8000000000011) translate(115 62.222222222222214)"/><use xlink:href="#y" transform="matrix(1,0,0,1,965,497.8000000000011) translate(24.351851851851848 92.44444444444443)"/><use xlink:href="#z" transform="matrix(1,0,0,1,965,497.8000000000011) translate(131.6358024691358 92.44444444444443)"/><use xlink:href="#A" transform="matrix(1,0,0,1,965,497.8000000000011) translate(115 119.11111111111111)"/><use xlink:href="#B" transform="matrix(1,0,0,1,965,497.8000000000011) translate(11.882716049382736 145.77777777777777)"/><use xlink:href="#C" transform="matrix(1,0,0,1,965,497.8000000000011) translate(83.3641975308642 145.77777777777777)"/><use xlink:href="#D" transform="matrix(1,0,0,1,965,497.8000000000011) translate(163.85802469135803 145.77777777777777)"/><use xlink:href="#E" transform="matrix(1,0,0,1,965,497.8000000000011) translate(115 172.44444444444443)"/><path d="M940 864.32c0-3.3 2.7-6 6-6h268c3.3 0 6 2.7 6 6v248c0 3.3-2.7 6-6 6H946c-3.3 0-6-2.7-6-6z" stroke="#5e5e5e" stroke-width="3" fill="#fff"/><path d="M960 898.8c0-3.3 2.7-6 6-6h228c3.3 0 6 2.7 6 6v208c0 3.3-2.7 6-6 6H966c-3.3 0-6-2.7-6-6z" stroke="#0c7cba" stroke-width="3" fill="#fff" fill-opacity="0"/><g><use xlink:href="#F" transform="matrix(1,0,0,1,965,897.8000000000011) translate(71.05555555555557 24.88888888888888)"/><use xlink:href="#G" transform="matrix(1,0,0,1,965,897.8000000000011) translate(115 51.55555555555552)"/><use xlink:href="#H" transform="matrix(1,0,0,1,965,897.8000000000011) translate(69.61728395061733 72.88888888888883)"/><use xlink:href="#I" transform="matrix(1,0,0,1,965,897.8000000000011) translate(154.45679012345676 72.88888888888883)"/><use xlink:href="#J" transform="matrix(1,0,0,1,965,897.8000000000011) translate(58.75308641975316 94.22222222222214)"/><use xlink:href="#K" transform="matrix(1,0,0,1,965,897.8000000000011) translate(119.98765432098764 94.22222222222214)"/><use xlink:href="#L" transform="matrix(1,0,0,1,965,897.8000000000011) translate(58.75308641975316 115.55555555555546)"/><use xlink:href="#K" transform="matrix(1,0,0,1,965,897.8000000000011) translate(119.98765432098764 115.55555555555546)"/><use xlink:href="#M" transform="matrix(1,0,0,1,965,897.8000000000011) translate(42.45679012345687 136.88888888888877)"/><use xlink:href="#N" transform="matrix(1,0,0,1,965,897.8000000000011) translate(99.69135802469137 136.88888888888877)"/><use xlink:href="#O" transform="matrix(1,0,0,1,965,897.8000000000011) translate(133.2222222222222 136.88888888888877)"/><use xlink:href="#P" transform="matrix(1,0,0,1,965,897.8000000000011) translate(115 158.2222222222221)"/><use xlink:href="#Q" transform="matrix(1,0,0,1,965,897.8000000000011) translate(115 179.5555555555554)"/></g><path d="M421 250.93h258.53c.26 0 .47-.2.47-.46s.2-.47.47-.47H921.5" stroke="#834187" stroke-width="2" fill="none"/><path d="M421.03 251.93H420v-2h1.03z" fill="#834187"/><path d="M936.76 250l-14.26 4.64v-9.28z" stroke="#834187" stroke-width="2" fill="#834187"/><path d="M1361.5 126c0-3.3 2.7-6 6-6h268c3.3 0 6 2.7 6 6v248c0 3.3-2.7 6-6 6h-268c-3.3 0-6-2.7-6-6z" stroke="#c92d39" stroke-width="3" fill="#fff"/><path d="M1381.5 146c0-3.3 2.7-6 6-6h228c3.3 0 6 2.7 6 6v208c0 3.3-2.7 6-6 6h-228c-3.3 0-6-2.7-6-6z" stroke="#c92d39" stroke-width="3" fill="#fff" fill-opacity="0"/><g><use xlink:href="#R" transform="matrix(1,0,0,1,1386.4999999999995,145) translate(82.24691358024691 24.888888888888886)"/><use xlink:href="#S" transform="matrix(1,0,0,1,1386.4999999999995,145) translate(50.30864197530869 55.1111111111111)"/><use xlink:href="#T" transform="matrix(1,0,0,1,1386.4999999999995,145) translate(121.79012345679013 55.1111111111111)"/><use xlink:href="#U" transform="matrix(1,0,0,1,1386.4999999999995,145) translate(57.03703703703708 81.77777777777774)"/><use xlink:href="#V" transform="matrix(1,0,0,1,1386.4999999999995,145) translate(115.06172839506172 81.77777777777774)"/><use xlink:href="#W" transform="matrix(1,0,0,1,1386.4999999999995,145) translate(39.22839506172846 108.4444444444444)"/><use xlink:href="#X" transform="matrix(1,0,0,1,1386.4999999999995,145) translate(155.09259259259255 108.4444444444444)"/><use xlink:href="#Y" transform="matrix(1,0,0,1,1386.4999999999995,145) translate(115 135.11111111111106)"/></g><path d="M560 538.8c0-3.3 2.7-6 6-6h268c3.3 0 6 2.7 6 6v233.52c0 3.3-2.7 6-6 6H566c-3.3 0-6-2.7-6-6z" stroke="#5e5e5e" stroke-width="3" fill="#fff"/><path d="M580 541c0-3.3 2.7-6 6-6h228c3.3 0 6 2.7 6 6v229.12c0 3.3-2.7 6-6 6H586c-3.3 0-6-2.7-6-6z" stroke="#fcc438" stroke-width="3" fill="#fff" fill-opacity="0"/><g><use xlink:href="#Z" transform="matrix(1,0,0,1,585,540.0033898305096) translate(71.87654320987656 24.888888888888886)"/><use xlink:href="#aa" transform="matrix(1,0,0,1,585,540.0033898305096) translate(115 62.222222222222214)"/><use xlink:href="#ab" transform="matrix(1,0,0,1,585,540.0033898305096) translate(15.2222222222223 90.66666666666664)"/><use xlink:href="#ac" transform="matrix(1,0,0,1,585,540.0033898305096) translate(167.1111111111111 90.66666666666664)"/><use xlink:href="#ad" transform="matrix(1,0,0,1,585,540.0033898305096) translate(88.38888888888891 114.66666666666663)"/><use xlink:href="#ae" transform="matrix(1,0,0,1,585,540.0033898305096) translate(115 145.77777777777774)"/><use xlink:href="#af" transform="matrix(1,0,0,1,585,540.0033898305096) translate(45.25000000000006 173.3333333333333)"/><use xlink:href="#ag" transform="matrix(1,0,0,1,585,540.0033898305096) translate(118.1388888888889 173.3333333333333)"/><use xlink:href="#ah" transform="matrix(1,0,0,1,585,540.0033898305096) translate(115 199.11111111111103)"/><use xlink:href="#Y" transform="matrix(1,0,0,1,585,540.0033898305096) translate(115 225.7777777777777)"/></g><path d="M957.5 578.9H896c-3.3 0-6 2.7-6 6v31.2c0 3.32-2.7 6-6 6h-44" stroke="#7ab648" stroke-width="2" fill="none"/><path d="M958.5 579.9h-1.03v-2h1.03z" fill="#7ab648"/><path d="M824.74 622.1l14.26-4.63v9.27z" stroke="#7ab648" stroke-width="2" fill="#7ab648"/><path d="M421 294.13h273c3.3 0 6 2.7 6 6V515" stroke="#fcc438" stroke-width="2" fill="none"/><path d="M421.03 295.13H420v-2h1.03z" fill="#fcc438"/><path d="M700 530.27L695.36 516h9.28z" stroke="#fcc438" stroke-width="2" fill="#fcc438"/><path d="M421 335.47h323c3.3 0 6 2.68 6 6V424c0 3.3 2.7 6 6 6h318c3.3 0 6 2.7 6 6v36.8" stroke="#7ab648" stroke-width="2" fill="none"/><path d="M421.03 336.47H420v-2h1.03z" fill="#7ab648"/><path d="M1080 488.06l-4.64-14.26h9.28z" stroke="#7ab648" stroke-width="2" fill="#7ab648"/><path d="M1080 890.3V732.8" stroke="#0c7cba" stroke-width="2" fill="none"/><path d="M1081 891.3h-2v-1.03h2z" fill="#0c7cba"/><path d="M1080 717.54l4.64 14.26h-9.28z" stroke="#0c7cba" stroke-width="2" fill="#0c7cba"/><path d="M822.5 655.56H894c3.3 0 6 2.7 6 6V816.8c0 3.3 2.7 6 6 6h88.8c3.3 0 6 2.7 6 6v71.1" stroke="#0c7cba" stroke-width="2" fill="none"/><path d="M822.53 656.56h-1.03v-2h1.03z" fill="#0c7cba"/><path d="M1000.8 915.16l-4.64-14.26h9.28z" stroke="#0c7cba" stroke-width="2" fill="#0c7cba"/><path d="M1081.5 137.5v-33c0-3.3 2.7-6 6-6h408.53c3.3 0 6 2.7 6 6V120" stroke="#c92d39" stroke-width="2" fill="none"/><path d="M1082.5 138.5h-2v-1.03h2z" fill="#c92d39"/><path d="M1502.03 135.26L1497.4 121h9.27z" stroke="#c92d39" stroke-width="2" fill="#c92d39"/><path d="M180 526c0-3.3 2.7-6 6-6h268c3.3 0 6 2.7 6 6v233.52c0 3.3-2.7 6-6 6H186c-3.3 0-6-2.7-6-6z" stroke="#5e5e5e" stroke-width="3" fill="#fff"/><path d="M200 528.2c0-3.3 2.7-6 6-6h228c3.3 0 6 2.7 6 6v195.34c0 3.3-2.7 6-6 6H206c-3.3 0-6-2.7-6-6z" stroke="#f9d2de" stroke-width="3" fill="#fff" fill-opacity="0"/><g><use xlink:href="#ai" transform="matrix(1,0,0,1,205,527.2033898305085) translate(77.92592592592594 24.888888888888886)"/><use xlink:href="#aj" transform="matrix(1,0,0,1,205,527.2033898305085) translate(28.703703703703752 55.1111111111111)"/><use xlink:href="#ak" transform="matrix(1,0,0,1,205,527.2033898305085) translate(165.55555555555551 55.1111111111111)"/><use xlink:href="#al" transform="matrix(1,0,0,1,205,527.2033898305085) translate(45.95679012345684 81.77777777777774)"/><use xlink:href="#ak" transform="matrix(1,0,0,1,205,527.2033898305085) translate(148.30246913580243 81.77777777777774)"/><use xlink:href="#am" transform="matrix(1,0,0,1,205,527.2033898305085) translate(34.691358024691425 108.4444444444444)"/><use xlink:href="#an" transform="matrix(1,0,0,1,205,527.2033898305085) translate(120.98765432098764 108.4444444444444)"/><use xlink:href="#ao" transform="matrix(1,0,0,1,205,527.2033898305085) translate(78.02469135802473 135.11111111111106)"/><use xlink:href="#ap" transform="matrix(1,0,0,1,205,527.2033898305085) translate(37.12962962962969 161.77777777777771)"/><use xlink:href="#an" transform="matrix(1,0,0,1,205,527.2033898305085) translate(118.54938271604938 161.77777777777771)"/><use xlink:href="#aq" transform="matrix(1,0,0,1,205,527.2033898305085) translate(47.8086419753087 188.44444444444437)"/></g><path d="M421 375.4h33c3.3 0 6 2.7 6 6v91.1c0 3.3-2.7 6-6 6H326c-3.3 0-6 2.7-6 6V500" stroke="#f9d2de" stroke-width="2" fill="none"/><path d="M421.03 376.4H420v-2h1.03z" fill="#f9d2de"/><path d="M320 515.26L315.36 501h9.28z" stroke="#f9d2de" stroke-width="2" fill="#f9d2de"/><defs><path fill="#333" d="M143 4C61 4 22-44 18-125c-5-107 100-154 193-111 17 8 29 25 37 43l-32 9c-13-25-37-40-76-40-61 0-88 39-88 99 0 61 29 100 91 101 35 0 62-11 79-27v-45h-74v-28h105v86C228-13 192 4 143 4" id="ar"/><path fill="#333" d="M205 0l-28-72H64L36 0H1l101-248h38L239 0h-34zm-38-99l-47-123c-12 45-31 82-46 123h93" id="as"/><path fill="#333" d="M240 0l2-218c-23 76-54 145-80 218h-23L58-218 59 0H30v-248h44l77 211c21-75 51-140 76-211h43V0h-30" id="at"/><path fill="#333" d="M30 0v-248h187v28H63v79h144v27H63v87h162V0H30" id="au"/><g id="a"><use transform="matrix(0.08641975308641973,0,0,0.08641975308641973,0,0)" xlink:href="#ar"/><use transform="matrix(0.08641975308641973,0,0,0.08641975308641973,24.197530864197525,0)" xlink:href="#as"/><use transform="matrix(0.08641975308641973,0,0,0.08641975308641973,44.938271604938265,0)" xlink:href="#at"/><use transform="matrix(0.08641975308641973,0,0,0.08641975308641973,70.77777777777777,0)" xlink:href="#au"/></g><path fill="#333" d="M30-248c87 1 191-15 191 75 0 78-77 80-158 76V0H30v-248zm33 125c57 0 124 11 124-50 0-59-68-47-124-48v98" id="av"/><path fill="#333" d="M24 0v-261h32V0H24" id="aw"/><path fill="#333" d="M141-36C126-15 110 5 73 4 37 3 15-17 15-53c-1-64 63-63 125-63 3-35-9-54-41-54-24 1-41 7-42 31l-33-3c5-37 33-52 76-52 45 0 72 20 72 64v82c-1 20 7 32 28 27v20c-31 9-61-2-59-35zM48-53c0 20 12 33 32 33 41-3 63-29 60-74-43 2-92-5-92 41" id="ax"/><path fill="#333" d="M179-190L93 31C79 59 56 82 12 73V49c39 6 53-20 64-50L1-190h34L92-34l54-156h33" id="ay"/><path fill="#333" d="M100-194c63 0 86 42 84 106H49c0 40 14 67 53 68 26 1 43-12 49-29l28 8c-11 28-37 45-77 45C44 4 14-33 15-96c1-61 26-98 85-98zm52 81c6-60-76-77-97-28-3 7-6 17-6 28h103" id="az"/><path fill="#333" d="M114-163C36-179 61-72 57 0H25l-1-190h30c1 12-1 29 2 39 6-27 23-49 58-41v29" id="aA"/><path fill="#333" d="M135-143c-3-34-86-38-87 0 15 53 115 12 119 90S17 21 10-45l28-5c4 36 97 45 98 0-10-56-113-15-118-90-4-57 82-63 122-42 12 7 21 19 24 35" id="aB"/><path fill="#333" d="M33-154v-36h34v36H33zM33 0v-36h34V0H33" id="aC"/><g id="b"><use transform="matrix(0.04938271604938268,0,0,0.04938271604938268,0,0)" xlink:href="#av"/><use transform="matrix(0.04938271604938268,0,0,0.04938271604938268,11.851851851851842,0)" xlink:href="#aw"/><use transform="matrix(0.04938271604938268,0,0,0.04938271604938268,15.753086419753075,0)" xlink:href="#ax"/><use transform="matrix(0.04938271604938268,0,0,0.04938271604938268,25.62962962962961,0)" xlink:href="#ay"/><use transform="matrix(0.04938271604938268,0,0,0.04938271604938268,34.51851851851849,0)" xlink:href="#az"/><use transform="matrix(0.04938271604938268,0,0,0.04938271604938268,44.39506172839503,0)" xlink:href="#aA"/><use transform="matrix(0.04938271604938268,0,0,0.04938271604938268,50.271604938271565,0)" xlink:href="#aB"/><use transform="matrix(0.04938271604938268,0,0,0.04938271604938268,59.16049382716045,0)" xlink:href="#aC"/></g><path fill="#333" d="M233-177c-1 41-23 64-60 70L243 0h-38l-65-103H63V0H30v-248c88 3 205-21 203 71zM63-129c60-2 137 13 137-47 0-61-80-42-137-45v92" id="aD"/><path fill="#333" d="M137-103V0h-34v-103L8-248h37l75 118 75-118h37" id="aE"/><g id="c"><use transform="matrix(0.04938271604938268,0,0,0.04938271604938268,0,0)" xlink:href="#as"/><use transform="matrix(0.04938271604938268,0,0,0.04938271604938268,11.851851851851842,0)" xlink:href="#aD"/><use transform="matrix(0.04938271604938268,0,0,0.04938271604938268,24.641975308641957,0)" xlink:href="#aD"/><use transform="matrix(0.04938271604938268,0,0,0.04938271604938268,37.43209876543207,0)" xlink:href="#as"/><use transform="matrix(0.04938271604938268,0,0,0.04938271604938268,47.95061728395058,0)" xlink:href="#aE"/></g><path fill="#333" d="M30 0v-248h33v221h125V0H30" id="aF"/><g id="d"><use transform="matrix(0.04938271604938268,0,0,0.04938271604938268,0,0)" xlink:href="#av"/><use transform="matrix(0.04938271604938268,0,0,0.04938271604938268,11.851851851851842,0)" xlink:href="#aF"/><use transform="matrix(0.04938271604938268,0,0,0.04938271604938268,21.728395061728378,0)" xlink:href="#as"/><use transform="matrix(0.04938271604938268,0,0,0.04938271604938268,32.24691358024689,0)" xlink:href="#aE"/><use transform="matrix(0.04938271604938268,0,0,0.04938271604938268,44.09876543209873,0)" xlink:href="#au"/><use transform="matrix(0.04938271604938268,0,0,0.04938271604938268,55.95061728395058,0)" xlink:href="#aD"/></g><path fill="#333" d="M30-248c118-7 216 8 213 122C240-48 200 0 122 0H30v-248zM63-27c89 8 146-16 146-99s-60-101-146-95v194" id="aG"/><path fill="#333" d="M96-169c-40 0-48 33-48 73s9 75 48 75c24 0 41-14 43-38l32 2c-6 37-31 61-74 61-59 0-76-41-82-99-10-93 101-131 147-64 4 7 5 14 7 22l-32 3c-4-21-16-35-41-35" id="aH"/><path fill="#333" d="M143 0L79-87 56-68V0H24v-261h32v163l83-92h37l-77 82L181 0h-38" id="aI"/><g id="f"><use transform="matrix(0.04938271604938268,0,0,0.04938271604938268,0,0)" xlink:href="#aG"/><use transform="matrix(0.04938271604938268,0,0,0.04938271604938268,12.790123456790115,0)" xlink:href="#az"/><use transform="matrix(0.04938271604938268,0,0,0.04938271604938268,22.66666666666665,0)" xlink:href="#aH"/><use transform="matrix(0.04938271604938268,0,0,0.04938271604938268,31.555555555555532,0)" xlink:href="#aI"/><use transform="matrix(0.04938271604938268,0,0,0.04938271604938268,40.444444444444414,0)" xlink:href="#aC"/></g><path fill="#333" d="M212-179c-10-28-35-45-73-45-59 0-87 40-87 99 0 60 29 101 89 101 43 0 62-24 78-52l27 14C228-24 195 4 139 4 59 4 22-46 18-125c-6-104 99-153 187-111 19 9 31 26 39 46" id="aJ"/><g id="g"><use transform="matrix(0.04938271604938268,0,0,0.04938271604938268,0,0)" xlink:href="#aJ"/><use transform="matrix(0.04938271604938268,0,0,0.04938271604938268,12.790123456790115,0)" xlink:href="#as"/><use transform="matrix(0.04938271604938268,0,0,0.04938271604938268,24.641975308641957,0)" xlink:href="#aD"/><use transform="matrix(0.04938271604938268,0,0,0.04938271604938268,37.43209876543207,0)" xlink:href="#aG"/></g><path fill="#333" d="M63-220v92h138v28H63V0H30v-248h175v28H63" id="aK"/><path fill="#333" d="M24-231v-30h32v30H24zM24 0v-190h32V0H24" id="aL"/><path fill="#333" d="M85-194c31 0 48 13 60 33l-1-100h32l1 261h-30c-2-10 0-23-3-31C134-8 116 4 85 4 32 4 16-35 15-94c0-66 23-100 70-100zm9 24c-40 0-46 34-46 75 0 40 6 74 45 74 42 0 51-32 51-76 0-42-9-74-50-73" id="aM"/><g id="h"><use transform="matrix(0.04938271604938268,0,0,0.04938271604938268,0,0)" xlink:href="#aK"/><use transform="matrix(0.04938271604938268,0,0,0.04938271604938268,10.814814814814806,0)" xlink:href="#az"/><use transform="matrix(0.04938271604938268,0,0,0.04938271604938268,20.69135802469134,0)" xlink:href="#aL"/><use transform="matrix(0.04938271604938268,0,0,0.04938271604938268,24.59259259259257,0)" xlink:href="#aw"/><use transform="matrix(0.04938271604938268,0,0,0.04938271604938268,28.4938271604938,0)" xlink:href="#aM"/><use transform="matrix(0.04938271604938268,0,0,0.04938271604938268,38.37037037037034,0)" xlink:href="#aC"/></g><path fill="#333" d="M33 0v-248h34V0H33" id="aN"/><path fill="#333" d="M117-194c89-4 53 116 60 194h-32v-121c0-31-8-49-39-48C34-167 62-67 57 0H25l-1-190h30c1 10-1 24 2 32 11-22 29-35 61-36" id="aO"/><path fill="#333" d="M101-234c-31-9-42 10-38 44h38v23H63V0H32v-167H5v-23h27c-7-52 17-82 69-68v24" id="aP"/><path fill="#333" d="M100-194c62-1 85 37 85 99 1 63-27 99-86 99S16-35 15-95c0-66 28-99 85-99zM99-20c44 1 53-31 53-75 0-43-8-75-51-75s-53 32-53 75 10 74 51 75" id="aQ"/><g id="i"><use transform="matrix(0.04938271604938268,0,0,0.04938271604938268,0,0)" xlink:href="#aN"/><use transform="matrix(0.04938271604938268,0,0,0.04938271604938268,4.938271604938268,0)" xlink:href="#aO"/><use transform="matrix(0.04938271604938268,0,0,0.04938271604938268,14.814814814814804,0)" xlink:href="#aP"/><use transform="matrix(0.04938271604938268,0,0,0.04938271604938268,19.75308641975307,0)" xlink:href="#aQ"/><use transform="matrix(0.04938271604938268,0,0,0.04938271604938268,29.62962962962961,0)" xlink:href="#aC"/></g><path fill="#333" d="M137 0h-34L2-248h35l83 218 83-218h36" id="aR"/><path fill="#333" d="M232-93c-1 65-40 97-104 97C67 4 28-28 28-90v-158h33c8 89-33 224 67 224 102 0 64-133 71-224h33v155" id="aS"/><path fill="#333" d="M185-189c-5-48-123-54-124 2 14 75 158 14 163 119 3 78-121 87-175 55-17-10-28-26-33-46l33-7c5 56 141 63 141-1 0-78-155-14-162-118-5-82 145-84 179-34 5 7 8 16 11 25" id="aT"/><g id="j"><use transform="matrix(0.04938271604938268,0,0,0.04938271604938268,0,0)" xlink:href="#aR"/><use transform="matrix(0.04938271604938268,0,0,0.04938271604938268,10.51851851851851,0)" xlink:href="#as"/><use transform="matrix(0.04938271604938268,0,0,0.04938271604938268,22.370370370370352,0)" xlink:href="#aF"/><use transform="matrix(0.04938271604938268,0,0,0.04938271604938268,32.24691358024689,0)" xlink:href="#aS"/><use transform="matrix(0.04938271604938268,0,0,0.04938271604938268,45.037037037037,0)" xlink:href="#au"/><use transform="matrix(0.04938271604938268,0,0,0.04938271604938268,56.88888888888884,0)" xlink:href="#aT"/></g><g id="k"><use transform="matrix(0.0864197530864197,0,0,0.0864197530864197,0,0)" xlink:href="#av"/><use transform="matrix(0.0864197530864197,0,0,0.0864197530864197,20.74074074074073,0)" xlink:href="#aF"/><use transform="matrix(0.0864197530864197,0,0,0.0864197530864197,38.02469135802467,0)" xlink:href="#as"/><use transform="matrix(0.0864197530864197,0,0,0.0864197530864197,56.432098765432066,0)" xlink:href="#aE"/><use transform="matrix(0.0864197530864197,0,0,0.0864197530864197,77.1728395061728,0)" xlink:href="#au"/><use transform="matrix(0.0864197530864197,0,0,0.0864197530864197,97.91358024691355,0)" xlink:href="#aD"/></g><path fill="#333" d="M141 0L90-78 38 0H4l68-98-65-92h35l48 74 47-74h35l-64 92 68 98h-35" id="aU"/><path fill="#333" d="M59-47c-2 24 18 29 38 22v24C64 9 27 4 27-40v-127H5v-23h24l9-43h21v43h35v23H59v120" id="aV"/><g id="l"><use transform="matrix(0.055555555555555504,0,0,0.055555555555555504,0,0)" xlink:href="#az"/><use transform="matrix(0.055555555555555504,0,0,0.055555555555555504,11.1111111111111,0)" xlink:href="#aU"/><use transform="matrix(0.055555555555555504,0,0,0.055555555555555504,21.111111111111093,0)" xlink:href="#aV"/><use transform="matrix(0.055555555555555504,0,0,0.055555555555555504,26.666666666666643,0)" xlink:href="#az"/><use transform="matrix(0.055555555555555504,0,0,0.055555555555555504,37.77777777777774,0)" xlink:href="#aO"/><use transform="matrix(0.055555555555555504,0,0,0.055555555555555504,48.88888888888884,0)" xlink:href="#aM"/><use transform="matrix(0.055555555555555504,0,0,0.055555555555555504,59.99999999999994,0)" xlink:href="#aB"/></g><path fill="#333" d="M84 4C-5 8 30-112 23-190h32v120c0 31 7 50 39 49 72-2 45-101 50-169h31l1 190h-30c-1-10 1-25-2-33-11 22-28 36-60 37" id="aW"/><g id="m"><use transform="matrix(0.055555555555555504,0,0,0.055555555555555504,0,0)" xlink:href="#aW"/><use transform="matrix(0.055555555555555504,0,0,0.055555555555555504,11.1111111111111,0)" xlink:href="#aB"/><use transform="matrix(0.055555555555555504,0,0,0.055555555555555504,21.111111111111093,0)" xlink:href="#az"/><use transform="matrix(0.055555555555555504,0,0,0.055555555555555504,32.22222222222219,0)" xlink:href="#aA"/></g><g id="o"><use transform="matrix(0.055555555555555504,0,0,0.055555555555555504,0,0)" xlink:href="#aL"/><use transform="matrix(0.055555555555555504,0,0,0.055555555555555504,4.388888888888885,0)" xlink:href="#aB"/><use transform="matrix(0.055555555555555504,0,0,0.055555555555555504,14.388888888888875,0)" xlink:href="#aT"/><use transform="matrix(0.055555555555555504,0,0,0.055555555555555504,27.722222222222197,0)" xlink:href="#az"/><use transform="matrix(0.055555555555555504,0,0,0.055555555555555504,38.8333333333333,0)" xlink:href="#aV"/><use transform="matrix(0.055555555555555504,0,0,0.055555555555555504,44.38888888888885,0)" xlink:href="#aC"/></g><g id="p"><use transform="matrix(0.055555555555555504,0,0,0.055555555555555504,0,0)" xlink:href="#as"/><use transform="matrix(0.055555555555555504,0,0,0.055555555555555504,13.333333333333321,0)" xlink:href="#aD"/><use transform="matrix(0.055555555555555504,0,0,0.055555555555555504,27.722222222222197,0)" xlink:href="#aD"/><use transform="matrix(0.055555555555555504,0,0,0.055555555555555504,42.11111111111107,0)" xlink:href="#as"/><use transform="matrix(0.055555555555555504,0,0,0.055555555555555504,53.94444444444439,0)" xlink:href="#aE"/></g><path fill="#333" d="M126-127c33 6 58 20 58 59 0 88-139 92-164 29-3-8-5-16-6-25l32-3c6 27 21 44 54 44 32 0 52-15 52-46 0-38-36-46-79-43v-28c39 1 72-4 72-42 0-27-17-43-46-43-28 0-47 15-49 41l-32-3c6-42 35-63 81-64 48-1 79 21 79 65 0 36-21 52-52 59" id="aX"/><use transform="matrix(0.055555555555555504,0,0,0.055555555555555504,0,0)" xlink:href="#aX" id="q"/><g id="r"><use transform="matrix(0.055555555555555504,0,0,0.055555555555555504,0,0)" xlink:href="#aJ"/><use transform="matrix(0.055555555555555504,0,0,0.055555555555555504,14.388888888888875,0)" xlink:href="#as"/><use transform="matrix(0.055555555555555504,0,0,0.055555555555555504,27.722222222222197,0)" xlink:href="#aD"/><use transform="matrix(0.055555555555555504,0,0,0.055555555555555504,42.11111111111107,0)" xlink:href="#aG"/><use transform="matrix(0.055555555555555504,0,0,0.055555555555555504,56.49999999999994,0)" xlink:href="#aT"/></g><g id="s"><use transform="matrix(0.055555555555555504,0,0,0.055555555555555504,0,0)" xlink:href="#aT"/><use transform="matrix(0.055555555555555504,0,0,0.055555555555555504,13.333333333333321,0)" xlink:href="#aH"/><use transform="matrix(0.055555555555555504,0,0,0.055555555555555504,23.333333333333314,0)" xlink:href="#aQ"/><use transform="matrix(0.055555555555555504,0,0,0.055555555555555504,34.444444444444414,0)" xlink:href="#aA"/><use transform="matrix(0.055555555555555504,0,0,0.055555555555555504,41.05555555555552,0)" xlink:href="#az"/><use transform="matrix(0.055555555555555504,0,0,0.055555555555555504,52.16666666666662,0)" xlink:href="#aC"/></g><path fill="#333" d="M190 0L58-211 59 0H30v-248h39L202-35l-2-213h31V0h-41" id="aY"/><path fill="#333" d="M127-220V0H93v-220H8v-28h204v28h-85" id="aZ"/><g id="t"><use transform="matrix(0.055555555555555504,0,0,0.055555555555555504,0,0)" xlink:href="#aN"/><use transform="matrix(0.055555555555555504,0,0,0.055555555555555504,5.55555555555555,0)" xlink:href="#aY"/><use transform="matrix(0.055555555555555504,0,0,0.055555555555555504,19.944444444444425,0)" xlink:href="#aZ"/></g><g id="u"><use transform="matrix(0.055555555555555504,0,0,0.055555555555555504,0,0)" xlink:href="#aT"/><use transform="matrix(0.055555555555555504,0,0,0.055555555555555504,13.333333333333321,0)" xlink:href="#az"/><use transform="matrix(0.055555555555555504,0,0,0.055555555555555504,24.44444444444442,0)" xlink:href="#aV"/><use transform="matrix(0.055555555555555504,0,0,0.055555555555555504,29.99999999999997,0)" xlink:href="#aB"/><use transform="matrix(0.055555555555555504,0,0,0.055555555555555504,39.999999999999964,0)" xlink:href="#aC"/></g><g id="v"><use transform="matrix(0.055555555555555504,0,0,0.055555555555555504,0,0)" xlink:href="#aT"/><use transform="matrix(0.055555555555555504,0,0,0.055555555555555504,13.333333333333321,0)" xlink:href="#au"/><use transform="matrix(0.055555555555555504,0,0,0.055555555555555504,26.666666666666643,0)" xlink:href="#aZ"/></g><g id="w"><use transform="matrix(0.08641975308641973,0,0,0.08641975308641973,0,0)" xlink:href="#aK"/><use transform="matrix(0.08641975308641973,0,0,0.08641975308641973,18.92592592592592,0)" xlink:href="#az"/><use transform="matrix(0.08641975308641973,0,0,0.08641975308641973,36.209876543209866,0)" xlink:href="#aL"/><use transform="matrix(0.08641975308641973,0,0,0.08641975308641973,43.037037037037024,0)" xlink:href="#aw"/><use transform="matrix(0.08641975308641973,0,0,0.08641975308641973,49.864197530864175,0)" xlink:href="#aM"/></g><g id="y"><use transform="matrix(0.06172839506172839,0,0,0.06172839506172839,0,0)" xlink:href="#ar"/><use transform="matrix(0.06172839506172839,0,0,0.06172839506172839,17.28395061728395,0)" xlink:href="#az"/><use transform="matrix(0.06172839506172839,0,0,0.06172839506172839,29.629629629629626,0)" xlink:href="#aV"/><use transform="matrix(0.06172839506172839,0,0,0.06172839506172839,35.80246913580247,0)" xlink:href="#aJ"/><use transform="matrix(0.06172839506172839,0,0,0.06172839506172839,51.79012345679012,0)" xlink:href="#ax"/><use transform="matrix(0.06172839506172839,0,0,0.06172839506172839,64.1358024691358,0)" xlink:href="#aA"/><use transform="matrix(0.06172839506172839,0,0,0.06172839506172839,71.48148148148148,0)" xlink:href="#aM"/><use transform="matrix(0.06172839506172839,0,0,0.06172839506172839,83.82716049382717,0)" xlink:href="#aB"/><use transform="matrix(0.06172839506172839,0,0,0.06172839506172839,94.93827160493828,0)" xlink:href="#aC"/></g><path fill="#333" d="M210-169c-67 3-38 105-44 169h-31v-121c0-29-5-50-35-48C34-165 62-65 56 0H25l-1-190h30c1 10-1 24 2 32 10-44 99-50 107 0 11-21 27-35 58-36 85-2 47 119 55 194h-31v-121c0-29-5-49-35-48" id="ba"/><path fill="#333" d="M106-169C34-169 62-67 57 0H25v-261h32l-1 103c12-21 28-36 61-36 89 0 53 116 60 194h-32v-121c2-32-8-49-39-48" id="bb"/><g id="z"><use transform="matrix(0.06172839506172839,0,0,0.06172839506172839,0,0)" xlink:href="#ba"/><use transform="matrix(0.06172839506172839,0,0,0.06172839506172839,18.456790123456788,0)" xlink:href="#az"/><use transform="matrix(0.06172839506172839,0,0,0.06172839506172839,30.80246913580247,0)" xlink:href="#aV"/><use transform="matrix(0.06172839506172839,0,0,0.06172839506172839,36.97530864197531,0)" xlink:href="#bb"/><use transform="matrix(0.06172839506172839,0,0,0.06172839506172839,49.32098765432099,0)" xlink:href="#aQ"/><use transform="matrix(0.06172839506172839,0,0,0.06172839506172839,61.666666666666664,0)" xlink:href="#aM"/></g><g id="B"><use transform="matrix(0.06172839506172839,0,0,0.06172839506172839,0,0)" xlink:href="#aJ"/><use transform="matrix(0.06172839506172839,0,0,0.06172839506172839,15.987654320987653,0)" xlink:href="#ax"/><use transform="matrix(0.06172839506172839,0,0,0.06172839506172839,28.333333333333332,0)" xlink:href="#aA"/><use transform="matrix(0.06172839506172839,0,0,0.06172839506172839,35.67901234567901,0)" xlink:href="#aM"/><use transform="matrix(0.06172839506172839,0,0,0.06172839506172839,48.02469135802469,0)" xlink:href="#aB"/><use transform="matrix(0.06172839506172839,0,0,0.06172839506172839,59.1358024691358,0)" xlink:href="#aC"/></g><g id="C"><use transform="matrix(0.06172839506172839,0,0,0.06172839506172839,0,0)" xlink:href="#as"/><use transform="matrix(0.06172839506172839,0,0,0.06172839506172839,14.814814814814813,0)" xlink:href="#aD"/><use transform="matrix(0.06172839506172839,0,0,0.06172839506172839,30.80246913580247,0)" xlink:href="#aD"/><use transform="matrix(0.06172839506172839,0,0,0.06172839506172839,46.79012345679012,0)" xlink:href="#as"/><use transform="matrix(0.06172839506172839,0,0,0.06172839506172839,59.938271604938265,0)" xlink:href="#aE"/></g><g id="D"><use transform="matrix(0.06172839506172839,0,0,0.06172839506172839,0,0)" xlink:href="#aH"/><use transform="matrix(0.06172839506172839,0,0,0.06172839506172839,11.11111111111111,0)" xlink:href="#ax"/><use transform="matrix(0.06172839506172839,0,0,0.06172839506172839,23.45679012345679,0)" xlink:href="#aA"/><use transform="matrix(0.06172839506172839,0,0,0.06172839506172839,30.80246913580247,0)" xlink:href="#aM"/><use transform="matrix(0.06172839506172839,0,0,0.06172839506172839,43.148148148148145,0)" xlink:href="#aB"/></g><g id="F"><use transform="matrix(0.0864197530864197,0,0,0.0864197530864197,0,0)" xlink:href="#aJ"/><use transform="matrix(0.0864197530864197,0,0,0.0864197530864197,22.382716049382704,0)" xlink:href="#as"/><use transform="matrix(0.0864197530864197,0,0,0.0864197530864197,43.123456790123434,0)" xlink:href="#aD"/><use transform="matrix(0.0864197530864197,0,0,0.0864197530864197,65.50617283950614,0)" xlink:href="#aG"/></g><path fill="#333" d="M115-194c53 0 69 39 70 98 0 66-23 100-70 100C84 3 66-7 56-30L54 0H23l1-261h32v101c10-23 28-34 59-34zm-8 174c40 0 45-34 45-75 0-40-5-75-45-74-42 0-51 32-51 76 0 43 10 73 51 73" id="bc"/><g id="H"><use transform="matrix(0.04938271604938266,0,0,0.04938271604938266,0,0)" xlink:href="#as"/><use transform="matrix(0.04938271604938266,0,0,0.04938271604938266,11.851851851851837,0)" xlink:href="#aV"/><use transform="matrix(0.04938271604938266,0,0,0.04938271604938266,16.790123456790102,0)" xlink:href="#aV"/><use transform="matrix(0.04938271604938266,0,0,0.04938271604938266,21.728395061728367,0)" xlink:href="#aA"/><use transform="matrix(0.04938271604938266,0,0,0.04938271604938266,27.604938271604905,0)" xlink:href="#aL"/><use transform="matrix(0.04938271604938266,0,0,0.04938271604938266,31.506172839506135,0)" xlink:href="#bc"/><use transform="matrix(0.04938271604938266,0,0,0.04938271604938266,41.382716049382665,0)" xlink:href="#aW"/><use transform="matrix(0.04938271604938266,0,0,0.04938271604938266,51.259259259259196,0)" xlink:href="#aV"/><use transform="matrix(0.04938271604938266,0,0,0.04938271604938266,56.19753086419747,0)" xlink:href="#az"/><use transform="matrix(0.04938271604938266,0,0,0.04938271604938266,66.07407407407399,0)" xlink:href="#aB"/><use transform="matrix(0.04938271604938266,0,0,0.04938271604938266,74.96296296296288,0)" xlink:href="#aC"/></g><path fill="#333" d="M39-94c74 12-11 154 75 146v23c-44 4-70-10-70-52C44-23 55-84 6-82v-22c81 4-7-162 84-157h24v23c-82-15-2 131-75 144" id="bd"/><use transform="matrix(0.04938271604938266,0,0,0.04938271604938266,0,0)" xlink:href="#bd" id="I"/><path fill="#333" d="M115-194c55 1 70 41 70 98S169 2 115 4C84 4 66-9 55-30l1 105H24l-1-265h31l2 30c10-21 28-34 59-34zm-8 174c40 0 45-34 45-75s-6-73-45-74c-42 0-51 32-51 76 0 43 10 73 51 73" id="be"/><g id="J"><use transform="matrix(0.04938271604938266,0,0,0.04938271604938266,0,0)" xlink:href="#aT"/><use transform="matrix(0.04938271604938266,0,0,0.04938271604938266,11.851851851851837,0)" xlink:href="#bb"/><use transform="matrix(0.04938271604938266,0,0,0.04938271604938266,21.72839506172837,0)" xlink:href="#ax"/><use transform="matrix(0.04938271604938266,0,0,0.04938271604938266,31.6049382716049,0)" xlink:href="#be"/><use transform="matrix(0.04938271604938266,0,0,0.04938271604938266,41.48148148148143,0)" xlink:href="#az"/><use transform="matrix(0.04938271604938266,0,0,0.04938271604938266,51.35802469135796,0)" xlink:href="#aC"/></g><path fill="#333" d="M177-190C167-65 218 103 67 71c-23-6-38-20-44-43l32-5c15 47 100 32 89-28v-30C133-14 115 1 83 1 29 1 15-40 15-95c0-56 16-97 71-98 29-1 48 16 59 35 1-10 0-23 2-32h30zM94-22c36 0 50-32 50-73 0-42-14-75-50-75-39 0-46 34-46 75s6 73 46 73" id="bf"/><path fill="#333" d="M68-38c1 34 0 65-14 84H32c9-13 17-26 17-46H33v-38h35" id="bg"/><g id="K"><use transform="matrix(0.04938271604938266,0,0,0.04938271604938266,0,0)" xlink:href="#aT"/><use transform="matrix(0.04938271604938266,0,0,0.04938271604938266,11.851851851851837,0)" xlink:href="#aV"/><use transform="matrix(0.04938271604938266,0,0,0.04938271604938266,16.790123456790102,0)" xlink:href="#aA"/><use transform="matrix(0.04938271604938266,0,0,0.04938271604938266,22.66666666666664,0)" xlink:href="#aL"/><use transform="matrix(0.04938271604938266,0,0,0.04938271604938266,26.56790123456787,0)" xlink:href="#aO"/><use transform="matrix(0.04938271604938266,0,0,0.04938271604938266,36.4444444444444,0)" xlink:href="#bf"/><use transform="matrix(0.04938271604938266,0,0,0.04938271604938266,46.32098765432093,0)" xlink:href="#bg"/></g><g id="L"><use transform="matrix(0.04938271604938266,0,0,0.04938271604938266,0,0)" xlink:href="#aT"/><use transform="matrix(0.04938271604938266,0,0,0.04938271604938266,11.851851851851837,0)" xlink:href="#bb"/><use transform="matrix(0.04938271604938266,0,0,0.04938271604938266,21.72839506172837,0)" xlink:href="#ax"/><use transform="matrix(0.04938271604938266,0,0,0.04938271604938266,31.6049382716049,0)" xlink:href="#aM"/><use transform="matrix(0.04938271604938266,0,0,0.04938271604938266,41.48148148148143,0)" xlink:href="#az"/><use transform="matrix(0.04938271604938266,0,0,0.04938271604938266,51.35802469135796,0)" xlink:href="#aC"/></g><g id="M"><use transform="matrix(0.04938271604938266,0,0,0.04938271604938266,0,0)" xlink:href="#aJ"/><use transform="matrix(0.04938271604938266,0,0,0.04938271604938266,12.79012345679011,0)" xlink:href="#aQ"/><use transform="matrix(0.04938271604938266,0,0,0.04938271604938266,22.666666666666643,0)" xlink:href="#aW"/><use transform="matrix(0.04938271604938266,0,0,0.04938271604938266,32.54320987654317,0)" xlink:href="#aO"/><use transform="matrix(0.04938271604938266,0,0,0.04938271604938266,42.4197530864197,0)" xlink:href="#aV"/><use transform="matrix(0.04938271604938266,0,0,0.04938271604938266,47.35802469135797,0)" xlink:href="#aC"/></g><g id="N"><use transform="matrix(0.04938271604938266,0,0,0.04938271604938266,0,0)" xlink:href="#aL"/><use transform="matrix(0.04938271604938266,0,0,0.04938271604938266,3.90123456790123,0)" xlink:href="#aO"/><use transform="matrix(0.04938271604938266,0,0,0.04938271604938266,13.77777777777776,0)" xlink:href="#aV"/><use transform="matrix(0.04938271604938266,0,0,0.04938271604938266,18.71604938271603,0)" xlink:href="#bf"/></g><path fill="#333" d="M26 75v-336h71v23H56V52h41v23H26" id="bh"/><path fill="#333" d="M27 0v-27h64v-190l-56 39v-29l58-41h29v221h61V0H27" id="bi"/><path fill="#333" d="M101-251c82-7 93 87 43 132L82-64C71-53 59-42 53-27h129V0H18c2-99 128-94 128-182 0-28-16-43-45-43s-46 15-49 41l-32-3c6-41 34-60 81-64" id="bj"/><path fill="#333" d="M3 75V52h41v-290H3v-23h71V75H3" id="bk"/><g id="O"><use transform="matrix(0.04938271604938266,0,0,0.04938271604938266,0,0)" xlink:href="#bh"/><use transform="matrix(0.04938271604938266,0,0,0.04938271604938266,4.938271604938266,0)" xlink:href="#bi"/><use transform="matrix(0.04938271604938266,0,0,0.04938271604938266,14.8148148148148,0)" xlink:href="#bg"/><use transform="matrix(0.04938271604938266,0,0,0.04938271604938266,19.753086419753064,0)" xlink:href="#bj"/><use transform="matrix(0.04938271604938266,0,0,0.04938271604938266,29.6296296296296,0)" xlink:href="#bg"/><use transform="matrix(0.04938271604938266,0,0,0.04938271604938266,34.56790123456786,0)" xlink:href="#aX"/><use transform="matrix(0.04938271604938266,0,0,0.04938271604938266,44.44444444444439,0)" xlink:href="#bk"/><use transform="matrix(0.04938271604938266,0,0,0.04938271604938266,49.38271604938266,0)" xlink:href="#bg"/></g><g id="R"><use transform="matrix(0.08641975308641973,0,0,0.08641975308641973,0,0)" xlink:href="#aS"/><use transform="matrix(0.08641975308641973,0,0,0.08641975308641973,22.38271604938271,0)" xlink:href="#aB"/><use transform="matrix(0.08641975308641973,0,0,0.08641975308641973,37.938271604938265,0)" xlink:href="#az"/><use transform="matrix(0.08641975308641973,0,0,0.08641975308641973,55.22222222222221,0)" xlink:href="#aA"/></g><g id="S"><use transform="matrix(0.06172839506172835,0,0,0.06172839506172835,0,0)" xlink:href="#aY"/><use transform="matrix(0.06172839506172835,0,0,0.06172839506172835,15.987654320987643,0)" xlink:href="#ax"/><use transform="matrix(0.06172839506172835,0,0,0.06172839506172835,28.333333333333314,0)" xlink:href="#ba"/><use transform="matrix(0.06172839506172835,0,0,0.06172839506172835,46.79012345679009,0)" xlink:href="#az"/><use transform="matrix(0.06172839506172835,0,0,0.06172839506172835,59.13580246913576,0)" xlink:href="#aC"/></g><g id="T"><use transform="matrix(0.06172839506172835,0,0,0.06172839506172835,0,0)" xlink:href="#aT"/><use transform="matrix(0.06172839506172835,0,0,0.06172839506172835,14.814814814814804,0)" xlink:href="#aV"/><use transform="matrix(0.06172839506172835,0,0,0.06172839506172835,20.987654320987637,0)" xlink:href="#aA"/><use transform="matrix(0.06172839506172835,0,0,0.06172839506172835,28.33333333333331,0)" xlink:href="#aL"/><use transform="matrix(0.06172839506172835,0,0,0.06172839506172835,33.20987654320985,0)" xlink:href="#aO"/><use transform="matrix(0.06172839506172835,0,0,0.06172839506172835,45.55555555555552,0)" xlink:href="#bf"/></g><g id="U"><use transform="matrix(0.06172839506172835,0,0,0.06172839506172835,0,0)" xlink:href="#as"/><use transform="matrix(0.06172839506172835,0,0,0.06172839506172835,14.814814814814804,0)" xlink:href="#aW"/><use transform="matrix(0.06172839506172835,0,0,0.06172839506172835,27.160493827160472,0)" xlink:href="#aV"/><use transform="matrix(0.06172839506172835,0,0,0.06172839506172835,33.33333333333331,0)" xlink:href="#bb"/><use transform="matrix(0.06172839506172835,0,0,0.06172839506172835,45.67901234567898,0)" xlink:href="#aC"/></g><g id="V"><use transform="matrix(0.06172839506172835,0,0,0.06172839506172835,0,0)" xlink:href="#aT"/><use transform="matrix(0.06172839506172835,0,0,0.06172839506172835,14.814814814814804,0)" xlink:href="#aV"/><use transform="matrix(0.06172839506172835,0,0,0.06172839506172835,20.987654320987637,0)" xlink:href="#aA"/><use transform="matrix(0.06172839506172835,0,0,0.06172839506172835,28.33333333333331,0)" xlink:href="#aL"/><use transform="matrix(0.06172839506172835,0,0,0.06172839506172835,33.20987654320985,0)" xlink:href="#aO"/><use transform="matrix(0.06172839506172835,0,0,0.06172839506172835,45.55555555555552,0)" xlink:href="#bf"/></g><path fill="#333" d="M197 0v-115H63V0H30v-248h33v105h134v-105h34V0h-34" id="bl"/><g id="W"><use transform="matrix(0.06172839506172835,0,0,0.06172839506172835,0,0)" xlink:href="#bl"/><use transform="matrix(0.06172839506172835,0,0,0.06172839506172835,15.987654320987643,0)" xlink:href="#aL"/><use transform="matrix(0.06172839506172835,0,0,0.06172839506172835,20.864197530864182,0)" xlink:href="#bf"/><use transform="matrix(0.06172839506172835,0,0,0.06172839506172835,33.20987654320985,0)" xlink:href="#bb"/><use transform="matrix(0.06172839506172835,0,0,0.06172839506172835,45.55555555555552,0)" xlink:href="#aT"/><use transform="matrix(0.06172839506172835,0,0,0.06172839506172835,60.370370370370324,0)" xlink:href="#aH"/><use transform="matrix(0.06172839506172835,0,0,0.06172839506172835,71.48148148148142,0)" xlink:href="#aQ"/><use transform="matrix(0.06172839506172835,0,0,0.06172839506172835,83.8271604938271,0)" xlink:href="#aA"/><use transform="matrix(0.06172839506172835,0,0,0.06172839506172835,91.17283950617276,0)" xlink:href="#az"/><use transform="matrix(0.06172839506172835,0,0,0.06172839506172835,103.51851851851843,0)" xlink:href="#aC"/></g><g id="X"><use transform="matrix(0.06172839506172835,0,0,0.06172839506172835,0,0)" xlink:href="#aN"/><use transform="matrix(0.06172839506172835,0,0,0.06172839506172835,6.172839506172835,0)" xlink:href="#aY"/><use transform="matrix(0.06172839506172835,0,0,0.06172839506172835,22.16049382716048,0)" xlink:href="#aZ"/></g><path fill="#333" d="M194 0L95-120 63-95V0H30v-248h33v124l119-124h40L117-140 236 0h-42" id="bm"/><g id="Z"><use transform="matrix(0.08641975308641973,0,0,0.08641975308641973,0,0)" xlink:href="#aG"/><use transform="matrix(0.08641975308641973,0,0,0.08641975308641973,22.38271604938271,0)" xlink:href="#au"/><use transform="matrix(0.08641975308641973,0,0,0.08641975308641973,43.12345679012345,0)" xlink:href="#aJ"/><use transform="matrix(0.08641975308641973,0,0,0.08641975308641973,65.50617283950616,0)" xlink:href="#bm"/></g><g id="ab"><use transform="matrix(0.05555555555555552,0,0,0.05555555555555552,0,0)" xlink:href="#aA"/><use transform="matrix(0.05555555555555552,0,0,0.05555555555555552,6.611111111111106,0)" xlink:href="#az"/><use transform="matrix(0.05555555555555552,0,0,0.05555555555555552,17.72222222222221,0)" xlink:href="#ba"/><use transform="matrix(0.05555555555555552,0,0,0.05555555555555552,34.333333333333314,0)" xlink:href="#ax"/><use transform="matrix(0.05555555555555552,0,0,0.05555555555555552,45.444444444444414,0)" xlink:href="#aL"/><use transform="matrix(0.05555555555555552,0,0,0.05555555555555552,49.8333333333333,0)" xlink:href="#aO"/><use transform="matrix(0.05555555555555552,0,0,0.05555555555555552,60.9444444444444,0)" xlink:href="#aL"/><use transform="matrix(0.05555555555555552,0,0,0.05555555555555552,65.33333333333329,0)" xlink:href="#aO"/><use transform="matrix(0.05555555555555552,0,0,0.05555555555555552,76.44444444444439,0)" xlink:href="#bf"/><use transform="matrix(0.05555555555555552,0,0,0.05555555555555552,87.55555555555549,0)" xlink:href="#aJ"/><use transform="matrix(0.05555555555555552,0,0,0.05555555555555552,101.94444444444437,0)" xlink:href="#ax"/><use transform="matrix(0.05555555555555552,0,0,0.05555555555555552,113.05555555555547,0)" xlink:href="#aA"/><use transform="matrix(0.05555555555555552,0,0,0.05555555555555552,119.66666666666656,0)" xlink:href="#aM"/><use transform="matrix(0.05555555555555552,0,0,0.05555555555555552,130.7777777777777,0)" xlink:href="#aB"/><use transform="matrix(0.05555555555555552,0,0,0.05555555555555552,140.7777777777777,0)" xlink:href="#aC"/></g><g id="ac"><use transform="matrix(0.05555555555555552,0,0,0.05555555555555552,0,0)" xlink:href="#as"/><use transform="matrix(0.05555555555555552,0,0,0.05555555555555552,13.333333333333325,0)" xlink:href="#aA"/><use transform="matrix(0.05555555555555552,0,0,0.05555555555555552,19.944444444444432,0)" xlink:href="#aA"/><use transform="matrix(0.05555555555555552,0,0,0.05555555555555552,26.55555555555554,0)" xlink:href="#ax"/><use transform="matrix(0.05555555555555552,0,0,0.05555555555555552,37.66666666666664,0)" xlink:href="#ay"/></g><g id="ad"><use transform="matrix(0.05555555555555552,0,0,0.05555555555555552,0,0)" xlink:href="#aJ"/><use transform="matrix(0.05555555555555552,0,0,0.05555555555555552,14.388888888888879,0)" xlink:href="#ax"/><use transform="matrix(0.05555555555555552,0,0,0.05555555555555552,25.499999999999982,0)" xlink:href="#aA"/><use transform="matrix(0.05555555555555552,0,0,0.05555555555555552,32.111111111111086,0)" xlink:href="#aM"/><use transform="matrix(0.05555555555555552,0,0,0.05555555555555552,43.222222222222186,0)" xlink:href="#aB"/></g><g id="af"><use transform="matrix(0.05555555555555552,0,0,0.05555555555555552,0,0)" xlink:href="#aT"/><use transform="matrix(0.05555555555555552,0,0,0.05555555555555552,13.333333333333325,0)" xlink:href="#bb"/><use transform="matrix(0.05555555555555552,0,0,0.05555555555555552,24.44444444444443,0)" xlink:href="#aW"/><use transform="matrix(0.05555555555555552,0,0,0.05555555555555552,35.55555555555553,0)" xlink:href="#aP"/><use transform="matrix(0.05555555555555552,0,0,0.05555555555555552,40.72222222222219,0)" xlink:href="#aP"/><use transform="matrix(0.05555555555555552,0,0,0.05555555555555552,46.27777777777774,0)" xlink:href="#aw"/><use transform="matrix(0.05555555555555552,0,0,0.05555555555555552,50.66666666666663,0)" xlink:href="#az"/><use transform="matrix(0.05555555555555552,0,0,0.05555555555555552,61.77777777777772,0)" xlink:href="#aC"/></g><g id="ag"><use transform="matrix(0.05555555555555552,0,0,0.05555555555555552,0,0)" xlink:href="#ba"/><use transform="matrix(0.05555555555555552,0,0,0.05555555555555552,16.6111111111111,0)" xlink:href="#az"/><use transform="matrix(0.05555555555555552,0,0,0.05555555555555552,27.722222222222204,0)" xlink:href="#aV"/><use transform="matrix(0.05555555555555552,0,0,0.05555555555555552,33.27777777777776,0)" xlink:href="#bb"/><use transform="matrix(0.05555555555555552,0,0,0.05555555555555552,44.38888888888886,0)" xlink:href="#aQ"/><use transform="matrix(0.05555555555555552,0,0,0.05555555555555552,55.49999999999996,0)" xlink:href="#aM"/></g><path fill="#333" d="M140-251c81 0 123 46 123 126C263-46 219 4 140 4 59 4 17-45 17-125s42-126 123-126zm0 227c63 0 89-41 89-101s-29-99-89-99c-61 0-89 39-89 99S79-25 140-24" id="bn"/><g id="ai"><use transform="matrix(0.08641975308641973,0,0,0.08641975308641973,0,0)" xlink:href="#aN"/><use transform="matrix(0.08641975308641973,0,0,0.08641975308641973,8.641975308641973,0)" xlink:href="#aY"/><use transform="matrix(0.08641975308641973,0,0,0.08641975308641973,31.024691358024686,0)" xlink:href="#aK"/><use transform="matrix(0.08641975308641973,0,0,0.08641975308641973,49.950617283950606,0)" xlink:href="#bn"/></g><g id="aj"><use transform="matrix(0.06172839506172835,0,0,0.06172839506172835,0,0)" xlink:href="#aA"/><use transform="matrix(0.06172839506172835,0,0,0.06172839506172835,7.345679012345673,0)" xlink:href="#az"/><use transform="matrix(0.06172839506172835,0,0,0.06172839506172835,19.691358024691343,0)" xlink:href="#ba"/><use transform="matrix(0.06172839506172835,0,0,0.06172839506172835,38.148148148148124,0)" xlink:href="#ax"/><use transform="matrix(0.06172839506172835,0,0,0.06172839506172835,50.493827160493794,0)" xlink:href="#aL"/><use transform="matrix(0.06172839506172835,0,0,0.06172839506172835,55.37037037037033,0)" xlink:href="#aO"/><use transform="matrix(0.06172839506172835,0,0,0.06172839506172835,67.716049382716,0)" xlink:href="#bf"/><use transform="matrix(0.06172839506172835,0,0,0.06172839506172835,80.06172839506166,0)" xlink:href="#aT"/><use transform="matrix(0.06172839506172835,0,0,0.06172839506172835,94.87654320987647,0)" xlink:href="#az"/><use transform="matrix(0.06172839506172835,0,0,0.06172839506172835,107.22222222222214,0)" xlink:href="#aV"/><use transform="matrix(0.06172839506172835,0,0,0.06172839506172835,113.39506172839498,0)" xlink:href="#aB"/><use transform="matrix(0.06172839506172835,0,0,0.06172839506172835,124.50617283950608,0)" xlink:href="#aC"/></g><g id="ak"><use transform="matrix(0.06172839506172835,0,0,0.06172839506172835,0,0)" xlink:href="#aL"/><use transform="matrix(0.06172839506172835,0,0,0.06172839506172835,4.87654320987654,0)" xlink:href="#aO"/><use transform="matrix(0.06172839506172835,0,0,0.06172839506172835,17.22222222222221,0)" xlink:href="#aV"/><use transform="matrix(0.06172839506172835,0,0,0.06172839506172835,23.395061728395046,0)" xlink:href="#bf"/></g><path fill="#333" d="M108 0H70L1-190h34L89-25l56-165h34" id="bo"/><g id="al"><use transform="matrix(0.06172839506172835,0,0,0.06172839506172835,0,0)" xlink:href="#bo"/><use transform="matrix(0.06172839506172835,0,0,0.06172839506172835,11.111111111111104,0)" xlink:href="#ax"/><use transform="matrix(0.06172839506172835,0,0,0.06172839506172835,23.456790123456774,0)" xlink:href="#aw"/><use transform="matrix(0.06172839506172835,0,0,0.06172839506172835,28.333333333333314,0)" xlink:href="#aL"/><use transform="matrix(0.06172839506172835,0,0,0.06172839506172835,33.20987654320985,0)" xlink:href="#aM"/><use transform="matrix(0.06172839506172835,0,0,0.06172839506172835,45.55555555555552,0)" xlink:href="#aT"/><use transform="matrix(0.06172839506172835,0,0,0.06172839506172835,60.370370370370324,0)" xlink:href="#az"/><use transform="matrix(0.06172839506172835,0,0,0.06172839506172835,72.716049382716,0)" xlink:href="#aV"/><use transform="matrix(0.06172839506172835,0,0,0.06172839506172835,78.88888888888883,0)" xlink:href="#aB"/><use transform="matrix(0.06172839506172835,0,0,0.06172839506172835,89.99999999999993,0)" xlink:href="#aC"/></g><g id="am"><use transform="matrix(0.06172839506172835,0,0,0.06172839506172835,0,0)" xlink:href="#av"/><use transform="matrix(0.06172839506172835,0,0,0.06172839506172835,14.814814814814804,0)" xlink:href="#aw"/><use transform="matrix(0.06172839506172835,0,0,0.06172839506172835,19.691358024691343,0)" xlink:href="#ax"/><use transform="matrix(0.06172839506172835,0,0,0.06172839506172835,32.03703703703701,0)" xlink:href="#ay"/><use transform="matrix(0.06172839506172835,0,0,0.06172839506172835,43.14814814814811,0)" xlink:href="#az"/><use transform="matrix(0.06172839506172835,0,0,0.06172839506172835,55.49382716049378,0)" xlink:href="#aA"/><use transform="matrix(0.06172839506172835,0,0,0.06172839506172835,62.83950617283945,0)" xlink:href="#aB"/><use transform="matrix(0.06172839506172835,0,0,0.06172839506172835,73.95061728395055,0)" xlink:href="#aC"/></g><g id="an"><use transform="matrix(0.06172839506172835,0,0,0.06172839506172835,0,0)" xlink:href="#as"/><use transform="matrix(0.06172839506172835,0,0,0.06172839506172835,14.814814814814804,0)" xlink:href="#aD"/><use transform="matrix(0.06172839506172835,0,0,0.06172839506172835,30.802469135802447,0)" xlink:href="#aD"/><use transform="matrix(0.06172839506172835,0,0,0.06172839506172835,46.79012345679009,0)" xlink:href="#as"/><use transform="matrix(0.06172839506172835,0,0,0.06172839506172835,59.93827160493823,0)" xlink:href="#aE"/></g><g id="ao"><use transform="matrix(0.06172839506172835,0,0,0.06172839506172835,0,0)" xlink:href="#av"/><use transform="matrix(0.06172839506172835,0,0,0.06172839506172835,14.814814814814804,0)" xlink:href="#aw"/><use transform="matrix(0.06172839506172835,0,0,0.06172839506172835,19.691358024691343,0)" xlink:href="#ax"/><use transform="matrix(0.06172839506172835,0,0,0.06172839506172835,32.03703703703701,0)" xlink:href="#ay"/><use transform="matrix(0.06172839506172835,0,0,0.06172839506172835,43.14814814814811,0)" xlink:href="#az"/><use transform="matrix(0.06172839506172835,0,0,0.06172839506172835,55.49382716049378,0)" xlink:href="#aA"/><use transform="matrix(0.06172839506172835,0,0,0.06172839506172835,62.83950617283945,0)" xlink:href="#aB"/></g><g id="ap"><use transform="matrix(0.06172839506172835,0,0,0.06172839506172835,0,0)" xlink:href="#aT"/><use transform="matrix(0.06172839506172835,0,0,0.06172839506172835,14.814814814814804,0)" xlink:href="#aH"/><use transform="matrix(0.06172839506172835,0,0,0.06172839506172835,25.92592592592591,0)" xlink:href="#aQ"/><use transform="matrix(0.06172839506172835,0,0,0.06172839506172835,38.27160493827158,0)" xlink:href="#aA"/><use transform="matrix(0.06172839506172835,0,0,0.06172839506172835,45.61728395061725,0)" xlink:href="#az"/><use transform="matrix(0.06172839506172835,0,0,0.06172839506172835,57.96296296296292,0)" xlink:href="#aB"/><use transform="matrix(0.06172839506172835,0,0,0.06172839506172835,69.07407407407402,0)" xlink:href="#aC"/></g><path fill="#333" d="M33 0v-38h34V0H33" id="bp"/><g id="aq"><use transform="matrix(0.06172839506172835,0,0,0.06172839506172835,0,0)" xlink:href="#av"/><use transform="matrix(0.06172839506172835,0,0,0.06172839506172835,14.814814814814804,0)" xlink:href="#aw"/><use transform="matrix(0.06172839506172835,0,0,0.06172839506172835,19.691358024691343,0)" xlink:href="#ax"/><use transform="matrix(0.06172839506172835,0,0,0.06172839506172835,32.03703703703701,0)" xlink:href="#ay"/><use transform="matrix(0.06172839506172835,0,0,0.06172839506172835,43.14814814814811,0)" xlink:href="#az"/><use transform="matrix(0.06172839506172835,0,0,0.06172839506172835,55.49382716049378,0)" xlink:href="#aA"/><use transform="matrix(0.06172839506172835,0,0,0.06172839506172835,62.83950617283945,0)" xlink:href="#aB"/><use transform="matrix(0.06172839506172835,0,0,0.06172839506172835,73.95061728395055,0)" xlink:href="#bp"/><use transform="matrix(0.06172839506172835,0,0,0.06172839506172835,80.12345679012338,0)" xlink:href="#aB"/><use transform="matrix(0.06172839506172835,0,0,0.06172839506172835,91.23456790123448,0)" xlink:href="#aH"/><use transform="matrix(0.06172839506172835,0,0,0.06172839506172835,102.34567901234558,0)" xlink:href="#aQ"/><use transform="matrix(0.06172839506172835,0,0,0.06172839506172835,114.69135802469125,0)" xlink:href="#aA"/><use transform="matrix(0.06172839506172835,0,0,0.06172839506172835,122.03703703703692,0)" xlink:href="#az"/></g></defs></g></svg>